<?xml version="1.0" encoding="UTF-8" standalone="no"?>
<!-- Generator: Adobe Illustrator 16.0.0, SVG Export Plug-In . SVG Version: 6.00 Build 0)  -->

<svg
   xmlns:dc="http://purl.org/dc/elements/1.1/"
   xmlns:cc="http://creativecommons.org/ns#"
   xmlns:rdf="http://www.w3.org/1999/02/22-rdf-syntax-ns#"
   xmlns:svg="http://www.w3.org/2000/svg"
   xmlns="http://www.w3.org/2000/svg"
   xmlns:sodipodi="http://sodipodi.sourceforge.net/DTD/sodipodi-0.dtd"
   xmlns:inkscape="http://www.inkscape.org/namespaces/inkscape"
   version="1.1"
   id="Layer_5"
   x="0px"
   y="0px"
   width="520"
   height="520"
   viewBox="-15.5 51.678 519.99998 520.00001"
   enable-background="new -15.5 51.678 518.085 418.775"
   xml:space="preserve"
   inkscape:version="0.91 r13725"
   sodipodi:docname="logo.svg"><metadata
     id="metadata37"><rdf:RDF><cc:Work
         rdf:about=""><dc:format>image/svg+xml</dc:format><dc:type
           rdf:resource="http://purl.org/dc/dcmitype/StillImage" /><dc:title></dc:title></cc:Work></rdf:RDF></metadata><defs
     id="defs35" /><sodipodi:namedview
     pagecolor="#ffffff"
     bordercolor="#666666"
     borderopacity="1"
     objecttolerance="10"
     gridtolerance="10"
     guidetolerance="10"
     inkscape:pageopacity="0"
     inkscape:pageshadow="2"
     inkscape:window-width="1920"
     inkscape:window-height="990"
     id="namedview33"
     showgrid="false"
     inkscape:zoom="0.56354845"
     inkscape:cx="453.34701"
     inkscape:cy="179.2215"
     inkscape:window-x="0"
     inkscape:window-y="27"
     inkscape:window-maximized="1"
     inkscape:current-layer="Layer_5" /><g
     id="g4165"
     transform="translate(0.9575,-54.968833)"><path
       style="fill:#c1272d"
       inkscape:connector-curvature="0"
       id="path3"
       d="m 502.586,360.08301 c 0,-24.821 -7.55,-48.623 -22.445,-70.749 -13.373,-19.863 -32.108,-37.446 -55.687,-52.259 -45.516,-28.597 -105.346,-44.348 -168.454,-44.348 -21.079,0 -41.856,2.315 -62.01,5.787 -12.504,-11.51 -26.002,-19.891 -41.491,-28.082 -82.746,-39.441 -168,0 -168,0 0,0 72.672,30.49 68.924,93.266 -28.542,27.848 -44.01,61.426 -44.01,96.387 0,0.11 0.006,0.222 0.006,0.334 0,0.111 -0.006,0.223 -0.006,0.333 0,34.961 15.469,68.54 44.01,96.388 10.375,45.185 -68.923,100.157 -68.923,100.157 0,0 84.118,35.088 166.863,-4.352 15.488,-8.19 30.124,-18.548 42.627,-30.059 20.154,3.471 40.931,5.224 62.009,5.224 63.108,0 122.937,-15.752 168.454,-44.35 23.577,-14.813 42.312,-32.396 55.687,-52.26 14.896,-22.126 22.445,-45.927 22.445,-70.749 0,-0.11 -0.006,-0.222 -0.006,-0.333 10e-4,-0.112 0.007,-0.222 0.007,-0.335 z" /><path
       style="fill:#ffffff"
       inkscape:connector-curvature="0"
       id="path5"
       d="m 256,228.72501 c 116.854,0 211.586,59.247 211.586,132.334 0,73.085 -94.73,132.336 -211.586,132.336 -26.019,0 -50.937,-2.947 -73.959,-8.318 -23.396,27.56 -74.868,65.877 -124.869,53.489 16.265,-17.105 40.361,-46.008 35.201,-93.607 -29.968,-22.836 -47.959,-52.056 -47.959,-83.899 0,-73.088 94.731,-132.335 211.586,-132.335" /><g
       transform="translate(0,101.22501)"
       id="g7"><g
         id="g9"><circle
           style="fill:#c1272d"
           id="circle11"
           r="29.316999"
           cy="260.353"
           cx="256" /></g><g
         id="g13"><circle
           style="fill:#c1272d"
           id="circle15"
           r="29.315001"
           cy="260.353"
           cx="357.93799" /></g><g
         id="g17"><circle
           style="fill:#c1272d"
           id="circle19"
           r="29.316999"
           cy="260.353"
           cx="154.062" /></g></g><g
       transform="translate(0,101.22501)"
       id="g21"><path
         style="fill:#cccccc"
         inkscape:connector-curvature="0"
         id="path23"
         d="m 256,376.373 c -26.019,0 -51.978,-2.368 -75,-7.123 -20.659,21.54 -73.352,62.192 -117.45,61.127 -11.638,11.488 -13.695,11.945 -19.136,17.789 50,12.651 114.231,-34.356 137.627,-62.504 23.023,5.486 47.941,8.495 73.959,8.495 115.917,0 210.048,-59.55 211.551,-133.364 -1.503,63.973 -95.634,115.58 -211.551,115.58 z" /></g><path
       style="fill:none"
       inkscape:connector-curvature="0"
       id="path25"
       d="M 182.041,483.88601" /><path
       style="fill:none"
       inkscape:connector-curvature="0"
       id="path27"
       d="M 182.041,194.22501" /><line
       style="fill:none"
       id="line29"
       y2="580.39099"
       x2="-15.5"
       y1="163.72501"
       x1="-15.5" /><path
       style="fill:none"
       inkscape:connector-curvature="0"
       id="path31"
       d="M 193.99,522.07201" /></g></svg>